<mxfile host="app.diagrams.net" modified="2023-03-29T10:34:50.344Z" agent="Mozilla/5.0 (Windows NT 10.0; Win64; x64) AppleWebKit/537.36 (KHTML, like Gecko) Chrome/111.0.0.0 Safari/537.36" etag="sOvA7Ed4ZlcUwhUWN6d4" version="21.1.1" type="device">
  <diagram id="TX_hFky_1ASi0hqX5jpo" name="Page-1">
    <mxGraphModel dx="2359" dy="815" grid="1" gridSize="10" guides="1" tooltips="1" connect="1" arrows="1" fold="1" page="1" pageScale="1" pageWidth="850" pageHeight="1100" math="0" shadow="0">
      <root>
        <mxCell id="0" />
        <mxCell id="1" parent="0" />
        <mxCell id="UnDrAU2Cxf50PuH-eDDr-28" value="&lt;span style=&quot;color: rgba(0, 0, 0, 0); font-family: monospace; font-size: 0px; text-align: start;&quot;&gt;%3CmxGraphModel%3E%3Croot%3E%3CmxCell%20id%3D%220%22%2F%3E%3CmxCell%20id%3D%221%22%20parent%3D%220%22%2F%3E%3CmxCell%20id%3D%222%22%20value%3D%22involves%22%20style%3D%22text%3Bhtml%3D1%3BstrokeColor%3Dnone%3BfillColor%3Dnone%3Balign%3Dcenter%3BverticalAlign%3Dmiddle%3BwhiteSpace%3Dwrap%3Brounded%3D0%3BfontSize%3D12%3B%22%20vertex%3D%221%22%20parent%3D%221%22%3E%3CmxGeometry%20x%3D%22436%22%20y%3D%22714%22%20width%3D%2280%22%20height%3D%2230%22%20as%3D%22geometry%22%2F%3E%3C%2FmxCell%3E%3C%2Froot%3E%3C%2FmxGraphModel%3E&lt;/span&gt;" style="rounded=0;whiteSpace=wrap;html=1;strokeColor=#D79B00;strokeWidth=2;" parent="1" vertex="1">
          <mxGeometry x="-40" y="40" width="840" height="460" as="geometry" />
        </mxCell>
        <mxCell id="UnDrAU2Cxf50PuH-eDDr-35" value="" style="rounded=0;whiteSpace=wrap;html=1;fontSize=18;fillColor=none;strokeColor=#D79B00;strokeWidth=2;" parent="1" vertex="1">
          <mxGeometry x="160" y="70" width="230" height="410" as="geometry" />
        </mxCell>
        <mxCell id="UnDrAU2Cxf50PuH-eDDr-29" value="&lt;span style=&quot;color: rgba(0, 0, 0, 0); font-family: monospace; font-size: 0px; text-align: start;&quot;&gt;%3CmxGraphModel%3E%3Croot%3E%3CmxCell%20id%3D%220%22%2F%3E%3CmxCell%20id%3D%221%22%20parent%3D%220%22%2F%3E%3CmxCell%20id%3D%222%22%20value%3D%22involves%22%20style%3D%22text%3Bhtml%3D1%3BstrokeColor%3Dnone%3BfillColor%3Dnone%3Balign%3Dcenter%3BverticalAlign%3Dmiddle%3BwhiteSpace%3Dwrap%3Brounded%3D0%3BfontSize%3D12%3B%22%20vertex%3D%221%22%20parent%3D%221%22%3E%3CmxGeometry%20x%3D%22436%22%20y%3D%22714%22%20width%3D%2280%22%20height%3D%2230%22%20as%3D%22geometry%22%2F%3E%3C%2FmxCell%3E%3C%2Froot%3E%3C%2FmxGraphModel%3E&lt;/span&gt;" style="rounded=0;whiteSpace=wrap;html=1;strokeColor=#D79B00;strokeWidth=2;" parent="1" vertex="1">
          <mxGeometry x="-40" y="540" width="838" height="340" as="geometry" />
        </mxCell>
        <mxCell id="DC3X3oDQS7XeIwgn1uoU-7" value="Named element" style="swimlane;fontStyle=0;childLayout=stackLayout;horizontal=1;startSize=26;fillColor=#ffe6cc;horizontalStack=0;resizeParent=1;resizeParentMax=0;resizeLast=0;collapsible=1;marginBottom=0;strokeColor=#d79b00;strokeWidth=2;" parent="1" vertex="1">
          <mxGeometry x="230" y="80" width="150" height="52" as="geometry" />
        </mxCell>
        <mxCell id="DC3X3oDQS7XeIwgn1uoU-8" value="+ name: String" style="text;strokeColor=none;fillColor=none;align=left;verticalAlign=top;spacingLeft=4;spacingRight=4;overflow=hidden;rotatable=0;points=[[0,0.5],[1,0.5]];portConstraint=eastwest;" parent="DC3X3oDQS7XeIwgn1uoU-7" vertex="1">
          <mxGeometry y="26" width="150" height="26" as="geometry" />
        </mxCell>
        <mxCell id="UnDrAU2Cxf50PuH-eDDr-3" style="edgeStyle=orthogonalEdgeStyle;rounded=0;orthogonalLoop=1;jettySize=auto;html=1;exitX=0.5;exitY=0;exitDx=0;exitDy=0;entryX=0.5;entryY=0.974;entryDx=0;entryDy=0;entryPerimeter=0;endArrow=block;endFill=0;" parent="1" source="DC3X3oDQS7XeIwgn1uoU-11" target="DC3X3oDQS7XeIwgn1uoU-8" edge="1">
          <mxGeometry relative="1" as="geometry" />
        </mxCell>
        <mxCell id="DC3X3oDQS7XeIwgn1uoU-11" value="Employee" style="swimlane;fontStyle=0;childLayout=stackLayout;horizontal=1;startSize=26;fillColor=#ffe6cc;horizontalStack=0;resizeParent=1;resizeParentMax=0;resizeLast=0;collapsible=1;marginBottom=0;strokeColor=#d79b00;strokeWidth=2;" parent="1" vertex="1">
          <mxGeometry x="230" y="164" width="150" height="78" as="geometry" />
        </mxCell>
        <mxCell id="DC3X3oDQS7XeIwgn1uoU-12" value="+ mail: String" style="text;strokeColor=none;fillColor=none;align=left;verticalAlign=top;spacingLeft=4;spacingRight=4;overflow=hidden;rotatable=0;points=[[0,0.5],[1,0.5]];portConstraint=eastwest;" parent="DC3X3oDQS7XeIwgn1uoU-11" vertex="1">
          <mxGeometry y="26" width="150" height="26" as="geometry" />
        </mxCell>
        <mxCell id="DC3X3oDQS7XeIwgn1uoU-13" value="+ minimum_salary: int" style="text;strokeColor=none;fillColor=none;align=left;verticalAlign=top;spacingLeft=4;spacingRight=4;overflow=hidden;rotatable=0;points=[[0,0.5],[1,0.5]];portConstraint=eastwest;" parent="DC3X3oDQS7XeIwgn1uoU-11" vertex="1">
          <mxGeometry y="52" width="150" height="26" as="geometry" />
        </mxCell>
        <mxCell id="DC3X3oDQS7XeIwgn1uoU-110" style="edgeStyle=orthogonalEdgeStyle;rounded=0;orthogonalLoop=1;jettySize=auto;html=1;fontSize=16;endArrow=block;endFill=0;exitX=0.5;exitY=0;exitDx=0;exitDy=0;" parent="1" source="DC3X3oDQS7XeIwgn1uoU-15" target="DC3X3oDQS7XeIwgn1uoU-11" edge="1">
          <mxGeometry relative="1" as="geometry">
            <Array as="points">
              <mxPoint x="300" y="270" />
              <mxPoint x="300" y="270" />
            </Array>
          </mxGeometry>
        </mxCell>
        <mxCell id="DC3X3oDQS7XeIwgn1uoU-15" value="Architecture" style="swimlane;fontStyle=0;childLayout=stackLayout;horizontal=1;startSize=26;fillColor=#ffe6cc;horizontalStack=0;resizeParent=1;resizeParentMax=0;resizeLast=0;collapsible=1;marginBottom=0;strokeColor=#d79b00;strokeWidth=2;" parent="1" vertex="1">
          <mxGeometry x="230" y="280" width="150" height="78" as="geometry" />
        </mxCell>
        <mxCell id="DC3X3oDQS7XeIwgn1uoU-16" value="+ mail: String" style="text;strokeColor=none;fillColor=none;align=left;verticalAlign=top;spacingLeft=4;spacingRight=4;overflow=hidden;rotatable=0;points=[[0,0.5],[1,0.5]];portConstraint=eastwest;" parent="DC3X3oDQS7XeIwgn1uoU-15" vertex="1">
          <mxGeometry y="26" width="150" height="26" as="geometry" />
        </mxCell>
        <mxCell id="DC3X3oDQS7XeIwgn1uoU-17" value="+ minimum_salary: 2000" style="text;strokeColor=none;fillColor=none;align=left;verticalAlign=top;spacingLeft=4;spacingRight=4;overflow=hidden;rotatable=0;points=[[0,0.5],[1,0.5]];portConstraint=eastwest;" parent="DC3X3oDQS7XeIwgn1uoU-15" vertex="1">
          <mxGeometry y="52" width="150" height="26" as="geometry" />
        </mxCell>
        <mxCell id="UnDrAU2Cxf50PuH-eDDr-4" style="edgeStyle=orthogonalEdgeStyle;rounded=0;orthogonalLoop=1;jettySize=auto;html=1;exitX=0.5;exitY=0;exitDx=0;exitDy=0;endArrow=block;endFill=0;" parent="1" source="DC3X3oDQS7XeIwgn1uoU-23" target="DC3X3oDQS7XeIwgn1uoU-15" edge="1">
          <mxGeometry relative="1" as="geometry" />
        </mxCell>
        <mxCell id="DC3X3oDQS7XeIwgn1uoU-23" value="Software Engineer" style="swimlane;fontStyle=0;childLayout=stackLayout;horizontal=1;startSize=26;fillColor=#ffe6cc;horizontalStack=0;resizeParent=1;resizeParentMax=0;resizeLast=0;collapsible=1;marginBottom=0;strokeColor=#d79b00;strokeWidth=2;" parent="1" vertex="1">
          <mxGeometry x="230" y="390" width="150" height="78" as="geometry" />
        </mxCell>
        <mxCell id="DC3X3oDQS7XeIwgn1uoU-24" value="+ mail: String" style="text;strokeColor=none;fillColor=none;align=left;verticalAlign=top;spacingLeft=4;spacingRight=4;overflow=hidden;rotatable=0;points=[[0,0.5],[1,0.5]];portConstraint=eastwest;" parent="DC3X3oDQS7XeIwgn1uoU-23" vertex="1">
          <mxGeometry y="26" width="150" height="26" as="geometry" />
        </mxCell>
        <mxCell id="DC3X3oDQS7XeIwgn1uoU-25" value="+ minimum_salary: 2500" style="text;strokeColor=none;fillColor=none;align=left;verticalAlign=top;spacingLeft=4;spacingRight=4;overflow=hidden;rotatable=0;points=[[0,0.5],[1,0.5]];portConstraint=eastwest;" parent="DC3X3oDQS7XeIwgn1uoU-23" vertex="1">
          <mxGeometry y="52" width="150" height="26" as="geometry" />
        </mxCell>
        <mxCell id="UnDrAU2Cxf50PuH-eDDr-23" style="edgeStyle=orthogonalEdgeStyle;rounded=0;orthogonalLoop=1;jettySize=auto;html=1;endArrow=none;endFill=0;" parent="1" source="DC3X3oDQS7XeIwgn1uoU-50" target="UnDrAU2Cxf50PuH-eDDr-16" edge="1">
          <mxGeometry relative="1" as="geometry" />
        </mxCell>
        <mxCell id="DC3X3oDQS7XeIwgn1uoU-50" value="Pavel:Software Engineer" style="swimlane;fontStyle=0;childLayout=stackLayout;horizontal=1;startSize=26;fillColor=#ffe6cc;horizontalStack=0;resizeParent=1;resizeParentMax=0;resizeLast=0;collapsible=1;marginBottom=0;strokeColor=#d79b00;strokeWidth=2;" parent="1" vertex="1">
          <mxGeometry x="-5" y="600" width="170" height="104" as="geometry" />
        </mxCell>
        <mxCell id="DC3X3oDQS7XeIwgn1uoU-51" value="+ name: Pavel" style="text;strokeColor=none;fillColor=none;align=left;verticalAlign=top;spacingLeft=4;spacingRight=4;overflow=hidden;rotatable=0;points=[[0,0.5],[1,0.5]];portConstraint=eastwest;" parent="DC3X3oDQS7XeIwgn1uoU-50" vertex="1">
          <mxGeometry y="26" width="170" height="26" as="geometry" />
        </mxCell>
        <mxCell id="DC3X3oDQS7XeIwgn1uoU-52" value="+ mail: abc@engineering.com" style="text;strokeColor=none;fillColor=none;align=left;verticalAlign=top;spacingLeft=4;spacingRight=4;overflow=hidden;rotatable=0;points=[[0,0.5],[1,0.5]];portConstraint=eastwest;" parent="DC3X3oDQS7XeIwgn1uoU-50" vertex="1">
          <mxGeometry y="52" width="170" height="26" as="geometry" />
        </mxCell>
        <mxCell id="DC3X3oDQS7XeIwgn1uoU-53" value="+ minimum_salary: 2700" style="text;strokeColor=none;fillColor=none;align=left;verticalAlign=top;spacingLeft=4;spacingRight=4;overflow=hidden;rotatable=0;points=[[0,0.5],[1,0.5]];portConstraint=eastwest;" parent="DC3X3oDQS7XeIwgn1uoU-50" vertex="1">
          <mxGeometry y="78" width="170" height="26" as="geometry" />
        </mxCell>
        <mxCell id="DC3X3oDQS7XeIwgn1uoU-54" value="Eva:Software Engineer" style="swimlane;fontStyle=0;childLayout=stackLayout;horizontal=1;startSize=26;fillColor=#ffe6cc;horizontalStack=0;resizeParent=1;resizeParentMax=0;resizeLast=0;collapsible=1;marginBottom=0;strokeColor=#d79b00;strokeWidth=2;" parent="1" vertex="1">
          <mxGeometry x="220" y="597" width="170" height="104" as="geometry" />
        </mxCell>
        <mxCell id="DC3X3oDQS7XeIwgn1uoU-55" value="+ name: Michael" style="text;align=left;verticalAlign=top;spacingLeft=4;spacingRight=4;overflow=hidden;rotatable=0;points=[[0,0.5],[1,0.5]];portConstraint=eastwest;" parent="DC3X3oDQS7XeIwgn1uoU-54" vertex="1">
          <mxGeometry y="26" width="170" height="26" as="geometry" />
        </mxCell>
        <mxCell id="DC3X3oDQS7XeIwgn1uoU-56" value="+ mail: def@engineering.com" style="text;strokeColor=none;fillColor=none;align=left;verticalAlign=top;spacingLeft=4;spacingRight=4;overflow=hidden;rotatable=0;points=[[0,0.5],[1,0.5]];portConstraint=eastwest;" parent="DC3X3oDQS7XeIwgn1uoU-54" vertex="1">
          <mxGeometry y="52" width="170" height="26" as="geometry" />
        </mxCell>
        <mxCell id="DC3X3oDQS7XeIwgn1uoU-57" value="+ minimum_salary: 2500" style="text;strokeColor=none;fillColor=none;align=left;verticalAlign=top;spacingLeft=4;spacingRight=4;overflow=hidden;rotatable=0;points=[[0,0.5],[1,0.5]];portConstraint=eastwest;" parent="DC3X3oDQS7XeIwgn1uoU-54" vertex="1">
          <mxGeometry y="78" width="170" height="26" as="geometry" />
        </mxCell>
        <mxCell id="DC3X3oDQS7XeIwgn1uoU-71" value="Project" style="swimlane;fontStyle=0;childLayout=stackLayout;horizontal=1;startSize=26;fillColor=#ffe6cc;horizontalStack=0;resizeParent=1;resizeParentMax=0;resizeLast=0;collapsible=1;marginBottom=0;strokeColor=#d79b00;strokeWidth=2;" parent="1" vertex="1">
          <mxGeometry x="560" y="164" width="140" height="78" as="geometry" />
        </mxCell>
        <mxCell id="DC3X3oDQS7XeIwgn1uoU-72" value="+ name: String" style="text;strokeColor=none;fillColor=none;align=left;verticalAlign=top;spacingLeft=4;spacingRight=4;overflow=hidden;rotatable=0;points=[[0,0.5],[1,0.5]];portConstraint=eastwest;" parent="DC3X3oDQS7XeIwgn1uoU-71" vertex="1">
          <mxGeometry y="26" width="140" height="26" as="geometry" />
        </mxCell>
        <mxCell id="DC3X3oDQS7XeIwgn1uoU-73" value="+ deadline: Date" style="text;strokeColor=none;fillColor=none;align=left;verticalAlign=top;spacingLeft=4;spacingRight=4;overflow=hidden;rotatable=0;points=[[0,0.5],[1,0.5]];portConstraint=eastwest;" parent="DC3X3oDQS7XeIwgn1uoU-71" vertex="1">
          <mxGeometry y="52" width="140" height="26" as="geometry" />
        </mxCell>
        <mxCell id="DC3X3oDQS7XeIwgn1uoU-94" style="edgeStyle=orthogonalEdgeStyle;rounded=0;orthogonalLoop=1;jettySize=auto;html=1;exitX=0.5;exitY=1;exitDx=0;exitDy=0;fontSize=16;" parent="1" edge="1">
          <mxGeometry relative="1" as="geometry">
            <mxPoint x="-50" y="667" as="sourcePoint" />
            <mxPoint x="-50" y="667" as="targetPoint" />
          </mxGeometry>
        </mxCell>
        <mxCell id="DC3X3oDQS7XeIwgn1uoU-96" value="" style="endArrow=diamondThin;endFill=0;endSize=24;html=1;rounded=0;fontSize=16;entryX=1;entryY=0.25;entryDx=0;entryDy=0;exitX=0;exitY=0.25;exitDx=0;exitDy=0;" parent="1" source="DC3X3oDQS7XeIwgn1uoU-71" edge="1">
          <mxGeometry width="160" relative="1" as="geometry">
            <mxPoint x="400" y="290" as="sourcePoint" />
            <mxPoint x="390" y="183.5" as="targetPoint" />
          </mxGeometry>
        </mxCell>
        <mxCell id="DC3X3oDQS7XeIwgn1uoU-97" value="" style="endArrow=diamondThin;endFill=0;endSize=24;html=1;rounded=0;fontSize=16;entryX=0;entryY=0.923;entryDx=0;entryDy=0;exitX=1.021;exitY=0.923;exitDx=0;exitDy=0;entryPerimeter=0;exitPerimeter=0;" parent="1" target="DC3X3oDQS7XeIwgn1uoU-72" edge="1">
          <mxGeometry width="160" relative="1" as="geometry">
            <mxPoint x="393.1500000000001" y="213.99800000000005" as="sourcePoint" />
            <mxPoint x="400" y="330" as="targetPoint" />
          </mxGeometry>
        </mxCell>
        <mxCell id="DC3X3oDQS7XeIwgn1uoU-98" value="works on" style="text;html=1;strokeColor=none;fillColor=none;align=center;verticalAlign=middle;whiteSpace=wrap;rounded=0;fontSize=12;fontStyle=1" parent="1" vertex="1">
          <mxGeometry x="430" y="157" width="80" height="30" as="geometry" />
        </mxCell>
        <mxCell id="DC3X3oDQS7XeIwgn1uoU-99" value="participates" style="text;html=1;strokeColor=none;fillColor=none;align=center;verticalAlign=middle;whiteSpace=wrap;rounded=0;fontSize=12;fontStyle=1" parent="1" vertex="1">
          <mxGeometry x="460" y="187" width="80" height="30" as="geometry" />
        </mxCell>
        <mxCell id="DC3X3oDQS7XeIwgn1uoU-101" value="*" style="text;html=1;strokeColor=none;fillColor=none;align=center;verticalAlign=middle;whiteSpace=wrap;rounded=0;fontSize=16;fontStyle=1" parent="1" vertex="1">
          <mxGeometry x="375" y="191" width="60" height="30" as="geometry" />
        </mxCell>
        <mxCell id="UnDrAU2Cxf50PuH-eDDr-5" value="" style="endArrow=classic;html=1;rounded=0;dashed=1;exitX=0.5;exitY=0;exitDx=0;exitDy=0;" parent="1" source="DC3X3oDQS7XeIwgn1uoU-50" edge="1">
          <mxGeometry width="50" height="50" relative="1" as="geometry">
            <mxPoint x="430" y="460" as="sourcePoint" />
            <mxPoint x="305" y="480" as="targetPoint" />
            <Array as="points">
              <mxPoint x="80" y="560" />
              <mxPoint x="190" y="560" />
              <mxPoint x="305" y="560" />
            </Array>
          </mxGeometry>
        </mxCell>
        <mxCell id="UnDrAU2Cxf50PuH-eDDr-11" value="" style="endArrow=classic;html=1;rounded=0;dashed=1;exitX=0.5;exitY=0;exitDx=0;exitDy=0;" parent="1" source="DC3X3oDQS7XeIwgn1uoU-54" edge="1">
          <mxGeometry width="50" height="50" relative="1" as="geometry">
            <mxPoint x="430" y="460" as="sourcePoint" />
            <mxPoint x="305" y="480" as="targetPoint" />
          </mxGeometry>
        </mxCell>
        <mxCell id="UnDrAU2Cxf50PuH-eDDr-12" value="instance-of" style="text;html=1;strokeColor=none;fillColor=none;align=center;verticalAlign=middle;whiteSpace=wrap;rounded=0;fontStyle=1" parent="1" vertex="1">
          <mxGeometry x="160" y="535" width="70" height="30" as="geometry" />
        </mxCell>
        <mxCell id="UnDrAU2Cxf50PuH-eDDr-13" value="instance-of" style="text;html=1;strokeColor=none;fillColor=none;align=center;verticalAlign=middle;whiteSpace=wrap;rounded=0;rotation=0;fontStyle=1" parent="1" vertex="1">
          <mxGeometry x="310" y="560" width="70" height="30" as="geometry" />
        </mxCell>
        <mxCell id="UnDrAU2Cxf50PuH-eDDr-30" style="edgeStyle=orthogonalEdgeStyle;rounded=0;orthogonalLoop=1;jettySize=auto;html=1;exitX=0.5;exitY=0;exitDx=0;exitDy=0;endArrow=classic;endFill=1;dashed=1;" parent="1" source="UnDrAU2Cxf50PuH-eDDr-15" target="DC3X3oDQS7XeIwgn1uoU-71" edge="1">
          <mxGeometry relative="1" as="geometry" />
        </mxCell>
        <mxCell id="UnDrAU2Cxf50PuH-eDDr-15" value="MS: Project" style="swimlane;fontStyle=0;childLayout=stackLayout;horizontal=1;startSize=26;fillColor=#ffe6cc;horizontalStack=0;resizeParent=1;resizeParentMax=0;resizeLast=0;collapsible=1;marginBottom=0;strokeColor=#d79b00;strokeWidth=2;" parent="1" vertex="1">
          <mxGeometry x="520" y="701" width="220" height="78" as="geometry" />
        </mxCell>
        <mxCell id="UnDrAU2Cxf50PuH-eDDr-16" value="+ name: Project management system" style="text;strokeColor=none;fillColor=none;align=left;verticalAlign=top;spacingLeft=4;spacingRight=4;overflow=hidden;rotatable=0;points=[[0,0.5],[1,0.5]];portConstraint=eastwest;" parent="UnDrAU2Cxf50PuH-eDDr-15" vertex="1">
          <mxGeometry y="26" width="220" height="26" as="geometry" />
        </mxCell>
        <mxCell id="UnDrAU2Cxf50PuH-eDDr-17" value="+ deadline: 04.04.2023" style="text;strokeColor=none;fillColor=none;align=left;verticalAlign=top;spacingLeft=4;spacingRight=4;overflow=hidden;rotatable=0;points=[[0,0.5],[1,0.5]];portConstraint=eastwest;" parent="UnDrAU2Cxf50PuH-eDDr-15" vertex="1">
          <mxGeometry y="52" width="220" height="26" as="geometry" />
        </mxCell>
        <mxCell id="UnDrAU2Cxf50PuH-eDDr-18" value="&lt;b&gt;*&lt;/b&gt;" style="text;html=1;strokeColor=none;fillColor=none;align=center;verticalAlign=middle;whiteSpace=wrap;rounded=0;fontSize=16;fontStyle=0" parent="1" vertex="1">
          <mxGeometry x="516" y="161" width="60" height="30" as="geometry" />
        </mxCell>
        <mxCell id="UnDrAU2Cxf50PuH-eDDr-19" value="" style="endArrow=none;html=1;rounded=0;entryX=0.25;entryY=0;entryDx=0;entryDy=0;" parent="1" source="DC3X3oDQS7XeIwgn1uoU-54" target="UnDrAU2Cxf50PuH-eDDr-15" edge="1">
          <mxGeometry width="50" height="50" relative="1" as="geometry">
            <mxPoint x="450" y="520" as="sourcePoint" />
            <mxPoint x="500" y="470" as="targetPoint" />
            <Array as="points">
              <mxPoint x="575" y="650" />
            </Array>
          </mxGeometry>
        </mxCell>
        <mxCell id="UnDrAU2Cxf50PuH-eDDr-24" value="works on" style="text;html=1;strokeColor=none;fillColor=none;align=center;verticalAlign=middle;whiteSpace=wrap;rounded=0;fontSize=12;fontStyle=1" parent="1" vertex="1">
          <mxGeometry x="386" y="624" width="80" height="30" as="geometry" />
        </mxCell>
        <mxCell id="UnDrAU2Cxf50PuH-eDDr-25" value="works on" style="text;html=1;strokeColor=none;fillColor=none;align=center;verticalAlign=middle;whiteSpace=wrap;rounded=0;fontSize=12;fontStyle=1" parent="1" vertex="1">
          <mxGeometry x="76" y="714" width="80" height="30" as="geometry" />
        </mxCell>
        <mxCell id="UnDrAU2Cxf50PuH-eDDr-26" value="participates" style="text;html=1;strokeColor=none;fillColor=none;align=center;verticalAlign=middle;whiteSpace=wrap;rounded=0;fontSize=12;fontStyle=1" parent="1" vertex="1">
          <mxGeometry x="436" y="714" width="80" height="30" as="geometry" />
        </mxCell>
        <mxCell id="UnDrAU2Cxf50PuH-eDDr-27" value="participates" style="text;html=1;strokeColor=none;fillColor=none;align=center;verticalAlign=middle;whiteSpace=wrap;rounded=0;fontSize=12;fontStyle=1" parent="1" vertex="1">
          <mxGeometry x="485" y="674" width="80" height="30" as="geometry" />
        </mxCell>
        <mxCell id="UnDrAU2Cxf50PuH-eDDr-31" value="instance-of" style="text;html=1;strokeColor=none;fillColor=none;align=center;verticalAlign=middle;whiteSpace=wrap;rounded=0;rotation=0;fontStyle=1" parent="1" vertex="1">
          <mxGeometry x="631" y="621" width="70" height="30" as="geometry" />
        </mxCell>
        <mxCell id="UnDrAU2Cxf50PuH-eDDr-32" value="&lt;b style=&quot;font-size: 18px;&quot;&gt;&lt;u&gt;Model Space&lt;/u&gt;&lt;/b&gt;" style="text;html=1;strokeColor=none;fillColor=none;align=center;verticalAlign=middle;whiteSpace=wrap;rounded=0;fontSize=18;" parent="1" vertex="1">
          <mxGeometry x="-34" y="50" width="150" height="30" as="geometry" />
        </mxCell>
        <mxCell id="UnDrAU2Cxf50PuH-eDDr-33" value="&lt;b style=&quot;font-size: 18px;&quot;&gt;&lt;u&gt;Instance Space&lt;/u&gt;&lt;/b&gt;" style="text;html=1;strokeColor=none;fillColor=none;align=center;verticalAlign=middle;whiteSpace=wrap;rounded=0;fontSize=18;" parent="1" vertex="1">
          <mxGeometry x="-30" y="840" width="150" height="30" as="geometry" />
        </mxCell>
        <mxCell id="UnDrAU2Cxf50PuH-eDDr-36" value="&lt;b&gt;O4&lt;/b&gt;" style="text;html=1;strokeColor=none;fillColor=none;align=center;verticalAlign=middle;whiteSpace=wrap;rounded=0;fontSize=18;" parent="1" vertex="1">
          <mxGeometry x="156" y="91" width="60" height="30" as="geometry" />
        </mxCell>
        <mxCell id="UnDrAU2Cxf50PuH-eDDr-37" value="&lt;b&gt;O3&lt;/b&gt;" style="text;html=1;strokeColor=none;fillColor=none;align=center;verticalAlign=middle;whiteSpace=wrap;rounded=0;fontSize=18;" parent="1" vertex="1">
          <mxGeometry x="156" y="191" width="60" height="30" as="geometry" />
        </mxCell>
        <mxCell id="UnDrAU2Cxf50PuH-eDDr-38" value="&lt;b&gt;O2&lt;/b&gt;" style="text;html=1;strokeColor=none;fillColor=none;align=center;verticalAlign=middle;whiteSpace=wrap;rounded=0;fontSize=18;" parent="1" vertex="1">
          <mxGeometry x="156" y="301" width="60" height="30" as="geometry" />
        </mxCell>
        <mxCell id="UnDrAU2Cxf50PuH-eDDr-39" value="&lt;b&gt;O1&lt;/b&gt;" style="text;html=1;strokeColor=none;fillColor=none;align=center;verticalAlign=middle;whiteSpace=wrap;rounded=0;fontSize=18;" parent="1" vertex="1">
          <mxGeometry x="156" y="411" width="60" height="29" as="geometry" />
        </mxCell>
      </root>
    </mxGraphModel>
  </diagram>
</mxfile>
